<svg xmlns="http://www.w3.org/2000/svg" xmlns:xlink="http://www.w3.org/1999/xlink" width="512" zoomAndPan="magnify" viewBox="0 0 384 383.999986" height="512" preserveAspectRatio="xMidYMid meet" version="1.0"><defs><g/><clipPath id="0c154f7490"><path d="M 70 4 L 384 4 L 384 319.636719 L 70 319.636719 Z M 70 4 " clip-rule="nonzero"/></clipPath><clipPath id="5733db9df7"><path d="M 140.929688 4.84375 L 313.5 4.84375 C 332.199219 4.84375 350.128906 12.269531 363.351562 25.492188 C 376.574219 38.710938 384 56.644531 384 75.34375 L 384 248.964844 C 384 267.664062 376.574219 285.59375 363.351562 298.816406 C 350.128906 312.039062 332.199219 319.464844 313.5 319.464844 L 140.929688 319.464844 C 122.234375 319.464844 104.300781 312.039062 91.078125 298.816406 C 77.859375 285.59375 70.429688 267.664062 70.429688 248.964844 L 70.429688 75.34375 C 70.429688 56.644531 77.859375 38.710938 91.078125 25.492188 C 104.300781 12.269531 122.234375 4.84375 140.929688 4.84375 Z M 140.929688 4.84375 " clip-rule="nonzero"/></clipPath><clipPath id="7712e97c45"><path d="M 0.320312 0.800781 L 314 0.800781 L 314 315.636719 L 0.320312 315.636719 Z M 0.320312 0.800781 " clip-rule="nonzero"/></clipPath><clipPath id="72b73d927f"><path d="M 70.929688 0.84375 L 243.5 0.84375 C 262.199219 0.84375 280.128906 8.269531 293.351562 21.492188 C 306.574219 34.710938 314 52.644531 314 71.34375 L 314 244.964844 C 314 263.664062 306.574219 281.59375 293.351562 294.816406 C 280.128906 308.039062 262.199219 315.464844 243.5 315.464844 L 70.929688 315.464844 C 52.234375 315.464844 34.300781 308.039062 21.078125 294.816406 C 7.859375 281.59375 0.429688 263.664062 0.429688 244.964844 L 0.429688 71.34375 C 0.429688 52.644531 7.859375 34.710938 21.078125 21.492188 C 34.300781 8.269531 52.234375 0.84375 70.929688 0.84375 Z M 70.929688 0.84375 " clip-rule="nonzero"/></clipPath><clipPath id="61ff7e38a9"><rect x="0" width="314" y="0" height="316"/></clipPath><clipPath id="bc7204bdd1"><rect x="0" width="251" y="0" height="303"/></clipPath><clipPath id="dcc2a05372"><path d="M 0 26 L 274 26 L 274 207 L 0 207 Z M 0 26 " clip-rule="nonzero"/></clipPath><clipPath id="33c9c24d73"><rect x="0" width="277" y="0" height="277"/></clipPath></defs><g clip-path="url(#0c154f7490)"><g clip-path="url(#5733db9df7)"><g transform="matrix(1, 0, 0, 1, 70, 4)"><g clip-path="url(#61ff7e38a9)"><g clip-path="url(#7712e97c45)"><g clip-path="url(#72b73d927f)"><path fill="#e4e4e7" d="M 0.429688 0.84375 L 314 0.84375 L 314 315.636719 L 0.429688 315.636719 Z M 0.429688 0.84375 " fill-opacity="1" fill-rule="nonzero"/></g></g></g></g></g></g><g transform="matrix(1, 0, 0, 1, 111, 81)"><g clip-path="url(#bc7204bdd1)"><g fill="#17691f" fill-opacity="1"><g transform="translate(16.237859, 238.247633)"><g><path d="M 183.015625 -192.5625 C 168.585938 -192.5625 155.378906 -189.535156 143.390625 -183.484375 C 131.398438 -177.441406 121.109375 -169.164062 112.515625 -158.65625 C 103.921875 -148.15625 97.234375 -135.847656 92.453125 -121.734375 C 87.679688 -107.628906 85.296875 -92.40625 85.296875 -76.0625 C 85.296875 -61.632812 87.894531 -50.707031 93.09375 -43.28125 C 98.289062 -35.851562 106.300781 -32.140625 117.125 -32.140625 C 129.644531 -32.140625 140.46875 -35.585938 149.59375 -42.484375 C 158.71875 -49.378906 165.082031 -59.195312 168.6875 -71.9375 C 169.113281 -73.632812 170.492188 -75.066406 172.828125 -76.234375 C 175.160156 -77.398438 177.597656 -78.191406 180.140625 -78.609375 C 182.691406 -79.035156 185.023438 -79.085938 187.140625 -78.765625 C 189.265625 -78.453125 190.328125 -77.660156 190.328125 -76.390625 C 183.535156 -52.410156 175.472656 -31.828125 166.140625 -14.640625 C 156.804688 2.546875 146.300781 16.601562 134.625 27.53125 C 122.957031 38.457031 110.226562 46.46875 96.4375 51.5625 C 82.644531 56.65625 68.003906 59.203125 52.515625 59.203125 C 31.503906 59.203125 15.535156 54.847656 4.609375 46.140625 C -6.316406 37.441406 -11.78125 25.671875 -11.78125 10.828125 C -11.78125 1.910156 -9.019531 -6.363281 -3.5 -14 C 2.019531 -21.644531 10.507812 -27.585938 21.96875 -31.828125 C 23.019531 -32.253906 23.648438 -31.882812 23.859375 -30.71875 C 24.078125 -29.550781 23.765625 -28.539062 22.921875 -27.6875 C 17.828125 -24.71875 14.054688 -20.84375 11.609375 -16.0625 C 9.171875 -11.289062 7.953125 -4.875 7.953125 3.1875 C 7.953125 19.09375 12.566406 31.445312 21.796875 40.25 C 31.023438 49.0625 44.023438 53.46875 60.796875 53.46875 C 72.253906 53.46875 82.863281 51.71875 92.625 48.21875 C 102.382812 44.71875 111.398438 39.09375 119.671875 31.34375 C 127.953125 23.601562 135.484375 13.421875 142.265625 0.796875 C 149.054688 -11.828125 155.316406 -27.265625 161.046875 -45.515625 C 154.472656 -39.992188 146.992188 -35.375 138.609375 -31.65625 C 130.234375 -27.945312 120.953125 -26.09375 110.765625 -26.09375 C 79.359375 -26.09375 63.65625 -40.3125 63.65625 -68.75 C 63.65625 -78.507812 65.296875 -88.640625 68.578125 -99.140625 C 71.867188 -109.648438 76.484375 -119.941406 82.421875 -130.015625 C 88.367188 -140.097656 95.476562 -149.644531 103.75 -158.65625 C 112.03125 -167.675781 121.101562 -175.582031 130.96875 -182.375 C 140.832031 -189.164062 151.390625 -194.578125 162.640625 -198.609375 C 173.890625 -202.640625 185.5625 -204.65625 197.65625 -204.65625 C 207.84375 -204.65625 216.007812 -202.425781 222.15625 -197.96875 C 228.3125 -193.507812 231.390625 -187.890625 231.390625 -181.109375 C 231.390625 -178.765625 230.644531 -176 229.15625 -172.8125 C 227.675781 -169.632812 225.820312 -166.398438 223.59375 -163.109375 C 221.363281 -159.828125 219.082031 -156.644531 216.75 -153.5625 C 214.414062 -150.488281 212.503906 -147.785156 211.015625 -145.453125 C 210.378906 -145.023438 209.632812 -145.078125 208.78125 -145.609375 C 207.9375 -146.140625 207.625 -146.832031 207.84375 -147.6875 C 210.8125 -152.351562 212.984375 -156.488281 214.359375 -160.09375 C 215.742188 -163.695312 216.4375 -167.625 216.4375 -171.875 C 216.4375 -177.8125 213.726562 -182.742188 208.3125 -186.671875 C 202.90625 -190.597656 194.472656 -192.5625 183.015625 -192.5625 Z M 183.015625 -192.5625 "/></g></g></g></g></g><g><g clip-path="url(#33c9c24d73)"><g clip-path="url(#dcc2a05372)"><g fill="#5d0ec0" fill-opacity="1"><g transform="translate(-12.58344, 206.979756)"><g><path d="M 285.546875 -163.609375 C 286.109375 -163.234375 286.390625 -162.71875 286.390625 -162.0625 C 286.390625 -161.414062 285.828125 -160.53125 284.703125 -159.40625 C 278.554688 -152.695312 273.054688 -145.003906 268.203125 -136.328125 C 263.359375 -127.660156 259.253906 -118.203125 255.890625 -107.953125 C 252.535156 -97.703125 249.925781 -86.890625 248.0625 -75.515625 C 246.195312 -64.140625 245.265625 -52.484375 245.265625 -40.546875 C 245.265625 -31.597656 246.335938 -24.65625 248.484375 -19.71875 C 250.628906 -14.78125 254.40625 -12.3125 259.8125 -12.3125 C 267.269531 -12.3125 274.351562 -17.53125 281.0625 -27.96875 C 281.625 -28.34375 282.1875 -28.34375 282.75 -27.96875 C 283.3125 -27.59375 283.5 -27.035156 283.3125 -26.296875 C 278.457031 -18.460938 273.09375 -12.117188 267.21875 -7.265625 C 261.351562 -2.421875 255.898438 0 250.859375 0 C 243.398438 0 237.757812 -2.890625 233.9375 -8.671875 C 230.125 -14.453125 228.21875 -22.65625 228.21875 -33.28125 C 228.21875 -48.195312 229.894531 -63.394531 233.25 -78.875 C 224.488281 -78.875 215.863281 -78.78125 207.375 -78.59375 C 198.894531 -78.40625 190.644531 -78.125 182.625 -77.75 C 176.46875 -71.21875 170.546875 -65.0625 164.859375 -59.28125 C 159.179688 -53.507812 153.632812 -48.195312 148.21875 -43.34375 C 133.3125 -29.738281 117.976562 -19.113281 102.21875 -11.46875 C 86.46875 -3.820312 69.175781 0 50.34375 0 C 40.269531 0 32.203125 -2.234375 26.140625 -6.703125 C 20.085938 -11.179688 16.082031 -16.867188 14.125 -23.765625 C 12.164062 -30.671875 12.210938 -38.222656 14.265625 -46.421875 C 16.316406 -54.628906 20.414062 -62.554688 26.5625 -70.203125 C 27.125 -70.566406 27.773438 -70.515625 28.515625 -70.046875 C 29.265625 -69.585938 29.546875 -68.707031 29.359375 -67.40625 C 25.078125 -62.738281 22.703125 -57.375 22.234375 -51.3125 C 21.765625 -45.257812 23.066406 -39.578125 26.140625 -34.265625 C 29.222656 -28.953125 34.023438 -24.472656 40.546875 -20.828125 C 47.078125 -17.191406 55.28125 -15.375 65.15625 -15.375 C 81.007812 -15.375 95.878906 -18.632812 109.765625 -25.15625 C 123.660156 -31.6875 136.757812 -40.546875 149.0625 -51.734375 C 153.351562 -55.460938 157.640625 -59.472656 161.921875 -63.765625 C 166.210938 -68.054688 170.691406 -72.53125 175.359375 -77.1875 C 168.828125 -76.8125 162.671875 -76.390625 156.890625 -75.921875 C 151.109375 -75.460938 145.703125 -74.859375 140.671875 -74.109375 C 139.742188 -74.296875 139.554688 -74.757812 140.109375 -75.5 C 140.671875 -76.25 141.507812 -77.039062 142.625 -77.875 C 143.75 -78.71875 145.101562 -79.46875 146.6875 -80.125 C 148.269531 -80.78125 149.804688 -81.203125 151.296875 -81.390625 C 153.722656 -81.578125 157.5 -81.710938 162.625 -81.796875 C 167.75 -81.890625 173.578125 -82.03125 180.109375 -82.21875 C 190.546875 -93.03125 202.148438 -104.726562 214.921875 -117.3125 C 227.691406 -129.90625 242.84375 -143.097656 260.375 -156.890625 C 247.882812 -160.992188 234.972656 -164.394531 221.640625 -167.09375 C 208.304688 -169.800781 195.488281 -171.15625 183.1875 -171.15625 C 169.195312 -171.15625 157.726562 -167.285156 148.78125 -159.546875 C 139.832031 -151.816406 134.332031 -139.65625 132.28125 -123.0625 C 131.90625 -122.125 131.390625 -121.75 130.734375 -121.9375 C 130.085938 -122.125 129.671875 -122.679688 129.484375 -123.609375 C 131.722656 -141.878906 138.53125 -155.863281 149.90625 -165.5625 C 161.28125 -175.257812 176.007812 -180.109375 194.09375 -180.109375 C 201.738281 -180.109375 209.753906 -179.59375 218.140625 -178.5625 C 226.535156 -177.539062 234.785156 -176.238281 242.890625 -174.65625 C 251.003906 -173.070312 258.742188 -171.300781 266.109375 -169.34375 C 273.472656 -167.382812 279.953125 -165.472656 285.546875 -163.609375 Z M 234.078125 -82.5 C 237.066406 -95.925781 241.265625 -108.976562 246.671875 -121.65625 C 252.078125 -134.332031 258.695312 -145.984375 266.53125 -156.609375 C 250.125 -143.378906 235.488281 -130.515625 222.625 -118.015625 C 209.757812 -105.523438 197.914062 -93.59375 187.09375 -82.21875 C 196.050781 -82.40625 204.863281 -82.5 213.53125 -82.5 C 222.195312 -82.5 229.046875 -82.5 234.078125 -82.5 Z M 234.078125 -82.5 "/></g></g></g></g></g></g></svg>